<svg width="25" height="24" viewBox="0 0 25 24" fill="none" xmlns="http://www.w3.org/2000/svg">
<path d="M22.3489 18.33C22.3489 18.69 22.2689 19.06 22.0989 19.42C21.9289 19.78 21.7089 20.12 21.4189 20.44C20.9289 20.98 20.3889 21.37 19.7789 21.62C19.1789 21.87 18.5289 22 17.8289 22C16.8089 22 15.7189 21.76 14.5689 21.27C13.4189 20.78 12.2689 20.12 11.1289 19.29C9.97891 18.45 8.88891 17.52 7.84891 16.49C6.81891 15.45 5.88891 14.36 5.05891 13.22C4.23891 12.08 3.57891 10.94 3.09891 9.81C2.61891 8.67 2.37891 7.58 2.37891 6.54C2.37891 5.86 2.49891 5.21 2.73891 4.61C2.97891 4 3.35891 3.44 3.88891 2.94C4.52891 2.31 5.22891 2 5.96891 2C6.24891 2 6.52891 2.06 6.77891 2.18C7.03891 2.3 7.26891 2.48 7.44891 2.74L9.76891 6.01C9.94891 6.26 10.0789 6.49 10.1689 6.71C10.2589 6.92 10.3089 7.13 10.3089 7.32C10.3089 7.56 10.2389 7.8 10.0989 8.03C9.96891 8.26 9.77891 8.5 9.53891 8.74L8.77891 9.53C8.66891 9.64 8.61891 9.77 8.61891 9.93C8.61891 10.01 8.62891 10.08 8.64891 10.16C8.67891 10.24 8.70891 10.3 8.72891 10.36C8.90891 10.69 9.21891 11.12 9.65891 11.64C10.1089 12.16 10.5889 12.69 11.1089 13.22C11.6489 13.75 12.1689 14.24 12.6989 14.69C13.2189 15.13 13.6489 15.43 13.9889 15.61C14.0389 15.63 14.0989 15.66 14.1689 15.69C14.2489 15.72 14.3289 15.73 14.4189 15.73C14.5889 15.73 14.7189 15.67 14.8289 15.56L15.5889 14.81C15.8389 14.56 16.0789 14.37 16.3089 14.25C16.5389 14.11 16.7689 14.04 17.0189 14.04C17.2089 14.04 17.4089 14.08 17.6289 14.17C17.8489 14.26 18.0789 14.39 18.3289 14.56L21.6389 16.91C21.8989 17.09 22.0789 17.3 22.1889 17.55C22.2889 17.8 22.3489 18.05 22.3489 18.33Z" stroke="#8F8F8F" stroke-width="1.5" stroke-miterlimit="10"/>
</svg>
