<svg width="20" height="20" viewBox="0 0 20 20" fill="none" xmlns="http://www.w3.org/2000/svg">
<path d="M8.67254 17.7757C7.71597 17.0648 7.15742 15.8072 7.46251 14.6278C7.6668 13.838 8.4711 12.7641 7.71052 12.0034C8.06934 12.3623 8.50589 12.5752 8.82378 13.0081C9.11558 13.4055 9.32326 13.8606 9.42928 14.3423C9.55454 14.9114 9.40044 15.5572 9.9173 15.9664C10.9596 16.7917 12.0214 15.4419 12.357 14.562C12.357 14.562 13.36 16.8341 11.5792 17.7757" stroke="#8F8F8F" stroke-linecap="round" stroke-linejoin="round"/>
<path d="M13.3621 17.776C13.3621 17.776 15.6956 16.3022 15.8184 13.1909C15.9412 10.0804 13.568 9.46588 13.5668 9.46556C13.7159 9.50414 13.6101 10.5185 13.5898 10.6218C13.4579 11.2926 12.838 11.7469 12.177 11.8138C11.5861 11.8736 10.7147 11.5782 10.5566 10.9279C10.432 10.4154 10.7525 9.86155 11.0135 9.44553C11.6165 8.48434 11.8972 7.34595 11.7192 6.22533C11.5231 4.99041 10.8383 3.56552 8.93742 2.62891C9.04472 2.68177 9.06448 3.34685 9.07412 3.44597C9.19604 4.70003 8.93469 5.94061 8.19213 6.98787C7.43275 8.05884 6.40522 8.89191 5.51667 9.84766C4.72517 10.699 4.22985 11.829 4.183 12.994C4.1314 14.2769 4.68953 15.3086 5.41511 16.3215C5.77973 16.8305 6.17648 17.3212 6.60734 17.776" stroke="#8F8F8F" stroke-linecap="round" stroke-linejoin="round"/>
</svg>
