<svg width="20" height="20" viewBox="0 0 20 20" fill="none" xmlns="http://www.w3.org/2000/svg">
<path d="M4.3763 3.3335C3.65801 3.3335 2.96913 3.61884 2.46122 4.12675C1.95331 4.63466 1.66797 5.32353 1.66797 6.04183V13.1252C1.66797 13.8435 1.95331 14.5323 2.46122 15.0402C2.96913 15.5482 3.65801 15.8335 4.3763 15.8335H15.6263C15.982 15.8335 16.3341 15.7634 16.6627 15.6273C16.9913 15.4912 17.2899 15.2917 17.5414 15.0402C17.7929 14.7888 17.9924 14.4902 18.1285 14.1616C18.2646 13.833 18.3346 13.4808 18.3346 13.1252V6.04183C18.3346 5.68617 18.2646 5.33399 18.1285 5.0054C17.9924 4.67681 17.7929 4.37824 17.5414 4.12675C17.2899 3.87526 16.9913 3.67576 16.6627 3.53966C16.3341 3.40355 15.982 3.3335 15.6263 3.3335H4.3763ZM2.91797 6.04183C2.91797 5.23683 3.5713 4.5835 4.3763 4.5835H6.66797V5.59016C6.28411 5.42238 5.85859 5.37422 5.44695 5.45197C5.03531 5.52971 4.65666 5.72975 4.36044 6.02597C4.06422 6.32219 3.86418 6.70084 3.78644 7.11248C3.70869 7.52412 3.75686 7.94964 3.92464 8.3335H2.91797V6.04183ZM7.91797 7.50016C7.91797 7.33534 7.96684 7.17423 8.05841 7.03719C8.14998 6.90015 8.28013 6.79334 8.4324 6.73026C8.58467 6.66719 8.75223 6.65069 8.91388 6.68284C9.07553 6.715 9.22401 6.79436 9.34056 6.91091C9.4571 7.02745 9.53647 7.17594 9.56862 7.33759C9.60078 7.49924 9.58427 7.66679 9.5212 7.81907C9.45813 7.97134 9.35132 8.10149 9.21428 8.19305C9.07724 8.28462 8.91612 8.3335 8.7513 8.3335H7.91797V7.50016ZM6.66797 8.3335H5.83464C5.66982 8.3335 5.5087 8.28462 5.37166 8.19305C5.23462 8.10149 5.12781 7.97134 5.06474 7.81907C5.00166 7.66679 4.98516 7.49924 5.01731 7.33759C5.04947 7.17594 5.12884 7.02745 5.24538 6.91091C5.36192 6.79436 5.51041 6.715 5.67206 6.68284C5.83371 6.65069 6.00127 6.66719 6.15354 6.73026C6.30581 6.79334 6.43596 6.90015 6.52753 7.03719C6.61909 7.17423 6.66797 7.33534 6.66797 7.50016V8.3335ZM6.66797 10.4668V14.5835H4.3763C3.98953 14.5835 3.6186 14.4298 3.3451 14.1564C3.07161 13.8829 2.91797 13.5119 2.91797 13.1252V9.5835H5.78464L4.3513 11.0168C4.2899 11.074 4.24064 11.143 4.20648 11.2197C4.17232 11.2964 4.15396 11.3791 4.15248 11.4631C4.151 11.547 4.16643 11.6303 4.19787 11.7082C4.2293 11.786 4.27609 11.8567 4.33544 11.916C4.39479 11.9754 4.46548 12.0222 4.5433 12.0536C4.62113 12.085 4.70449 12.1005 4.7884 12.099C4.87232 12.0975 4.95508 12.0791 5.03175 12.045C5.10842 12.0108 5.17742 11.9616 5.23464 11.9002L6.66797 10.4668ZM7.91797 14.5835V10.4668L9.3513 11.9002C9.40852 11.9616 9.47752 12.0108 9.55419 12.045C9.63085 12.0791 9.71361 12.0975 9.79753 12.099C9.88145 12.1005 9.96481 12.085 10.0426 12.0536C10.1205 12.0222 10.1912 11.9754 10.2505 11.916C10.3098 11.8567 10.3566 11.786 10.3881 11.7082C10.4195 11.6303 10.4349 11.547 10.4335 11.4631C10.432 11.3791 10.4136 11.2964 10.3795 11.2197C10.3453 11.143 10.296 11.074 10.2346 11.0168L8.8013 9.5835H17.0846V13.1252C17.0846 13.3167 17.0469 13.5063 16.9736 13.6832C16.9003 13.8602 16.7929 14.0209 16.6575 14.1564C16.5221 14.2918 16.3613 14.3992 16.1844 14.4725C16.0074 14.5458 15.8178 14.5835 15.6263 14.5835H7.91797ZM7.91797 5.59016V4.5835H15.6263C16.4313 4.5835 17.0846 5.23683 17.0846 6.04183V8.3335H10.6613C10.8291 7.94964 10.8772 7.52412 10.7995 7.11248C10.7218 6.70084 10.5217 6.32219 10.2255 6.02597C9.92927 5.72975 9.55063 5.52971 9.13899 5.45197C8.72734 5.37422 8.30182 5.42238 7.91797 5.59016Z" fill="#8F8F8F"/>
</svg>
