<svg width="20" height="20" viewBox="0 0 20 20" fill="none" xmlns="http://www.w3.org/2000/svg">
<path d="M18.3333 6.89175V3.52508C18.3333 2.20008 17.8 1.66675 16.475 1.66675H13.1083C11.7833 1.66675 11.25 2.20008 11.25 3.52508V6.89175C11.25 8.21675 11.7833 8.75008 13.1083 8.75008H16.475C17.8 8.75008 18.3333 8.21675 18.3333 6.89175Z" stroke="#8F8F8F" stroke-width="1.5" stroke-linecap="round" stroke-linejoin="round"/>
<path d="M8.7513 7.10008V3.31675C8.7513 2.14175 8.21797 1.66675 6.89297 1.66675H3.5263C2.2013 1.66675 1.66797 2.14175 1.66797 3.31675V7.09175C1.66797 8.27508 2.2013 8.74175 3.5263 8.74175H6.89297C8.21797 8.75008 8.7513 8.27508 8.7513 7.10008Z" stroke="#8F8F8F" stroke-width="1.5" stroke-linecap="round" stroke-linejoin="round"/>
<path d="M8.7513 16.475V13.1083C8.7513 11.7833 8.21797 11.25 6.89297 11.25H3.5263C2.2013 11.25 1.66797 11.7833 1.66797 13.1083V16.475C1.66797 17.8 2.2013 18.3333 3.5263 18.3333H6.89297C8.21797 18.3333 8.7513 17.8 8.7513 16.475Z" stroke="#8F8F8F" stroke-width="1.5" stroke-linecap="round" stroke-linejoin="round"/>
<path d="M12.5 12.9167H17.5" stroke="#8F8F8F" stroke-width="1.5" stroke-linecap="round"/>
<path d="M12.5 16.25H17.5" stroke="#8F8F8F" stroke-width="1.5" stroke-linecap="round"/>
</svg>
