<svg width="19" height="22" viewBox="0 0 19 22" fill="none" xmlns="http://www.w3.org/2000/svg">
<path d="M17.3789 6V16C17.3789 20 16.3789 21 12.3789 21H6.37891C2.37891 21 1.37891 20 1.37891 16V6C1.37891 2 2.37891 1 6.37891 1H12.3789C16.3789 1 17.3789 2 17.3789 6Z" stroke="#8F8F8F" stroke-width="1.5" stroke-linecap="round" stroke-linejoin="round"/>
<path d="M11.3789 4.5H7.37891" stroke="#8F8F8F" stroke-width="1.5" stroke-linecap="round" stroke-linejoin="round"/>
<path d="M9.37813 18.1C10.2342 18.1 10.9281 17.406 10.9281 16.55C10.9281 15.694 10.2342 15 9.37813 15C8.52208 15 7.82812 15.694 7.82812 16.55C7.82812 17.406 8.52208 18.1 9.37813 18.1Z" stroke="#8F8F8F" stroke-width="1.5" stroke-linecap="round" stroke-linejoin="round"/>
</svg>
