<svg width="28" height="28" viewBox="0 0 28 28" fill="none" xmlns="http://www.w3.org/2000/svg">
<path d="M1.74609 7.10474H4.95167L5.91187 11.382L7.9842 20.611H22.9357L25.405 12.2473" stroke="#8F8F8F" stroke-width="1.5" stroke-linecap="round" stroke-linejoin="round"/>
<path d="M10.8019 25.6701C11.6762 25.6701 12.385 24.9614 12.385 24.087C12.385 23.2126 11.6762 22.5039 10.8019 22.5039C9.92754 22.5039 9.21875 23.2126 9.21875 24.087C9.21875 24.9614 9.92754 25.6701 10.8019 25.6701Z" fill="#8F8F8F"/>
<path d="M20.755 25.6701C21.6293 25.6701 22.3381 24.9614 22.3381 24.087C22.3381 23.2126 21.6293 22.5039 20.755 22.5039C19.8806 22.5039 19.1719 23.2126 19.1719 24.087C19.1719 24.9614 19.8806 25.6701 20.755 25.6701Z" fill="#8F8F8F"/>
</svg>
