<svg width="1920" height="2414" viewBox="0 0 1920 2414" fill="none" xmlns="http://www.w3.org/2000/svg">
  <path
    d="M1952.61 2365.12L1951.65 2364.71C1933.53 2299.69 1916.64 2233.83 1899.81 2168.19C1844.27 1951.55 1789.35 1737.29 1692.66 1563.67C1469.71 1163.35 1024.48 979.152 -162.568 1479.79L-163.621 1479.35C1024.55 978.105 1470.19 1162.53 1693.38 1563.3C1790.12 1737.01 1845.06 1951.32 1900.61 2168.02C1917.48 2233.85 1934.42 2299.91 1952.61 2365.12M1985.38 2378.83L1984.38 2378.42C1959.09 2300.66 1935.69 2221.13 1912.32 2141.7C1847.47 1921.22 1782.82 1701.45 1678.24 1522.37C1432.96 1102.4 967.742 906.271 -235.424 1449.29L-236.455 1448.86C967.79 905.223 1433.42 1101.58 1678.95 1521.99C1783.59 1701.16 1848.25 1920.97 1913.12 2141.5C1936.55 2221.15 1960 2300.89 1985.38 2378.84L1985.38 2378.83ZM2023.96 2394.98L2022.93 2394.55C1989.41 2304.48 1958.55 2211.18 1927.62 2117.66C1853.03 1892.13 1778.04 1665.38 1664.26 1479.92C1395.01 1041.05 908.231 833.483 -304.932 1420.2L-305.947 1419.78C908.251 832.423 1395.44 1040.2 1664.97 1479.52C1778.8 1665.06 1853.8 1891.85 1928.41 2117.43C1959.41 2211.17 1990.34 2304.71 2023.96 2394.98ZM2068.43 2413.59L2067.36 2413.15C2024.71 2311.42 1985.5 2204.31 1946.03 2096.43C1861.08 1864.32 1774.84 1628.68 1650.22 1435.66C1355.38 979.039 845.411 761.102 -370.977 1392.56L-371.958 1392.15C845.407 760.038 1355.8 978.195 1650.91 1435.24C1775.58 1628.33 1861.84 1864.02 1946.8 2096.17C1986.37 2204.3 2025.66 2311.66 2068.42 2413.59L2068.43 2413.59ZM2105.99 2406.96L2105.56 2407.98C2057.73 2303.1 2013.1 2191.48 1967.91 2078.44C1871.73 1837.88 1772.98 1590.89 1635.41 1388.85C1313.52 916.137 778.769 689.544 -433.408 1366.43L-434.367 1366.02C778.74 688.477 1313.91 915.28 1636.09 1388.42C1773.72 1590.54 1872.48 1837.57 1968.68 2078.17C2013.76 2190.94 2058.29 2302.3 2105.98 2406.96L2105.99 2406.96ZM2126.03 2359.08L2125.6 2360.09C2080.78 2265.73 2037.61 2165.82 1993.72 2064.25C1885.16 1813.02 1772.2 1551.6 1618.99 1338.73C1268.73 852.066 707.856 619.287 -492.076 1341.87L-493.013 1341.48C707.805 618.21 1269.11 851.202 1619.67 1338.27C1772.93 1551.21 1885.9 1812.68 1994.48 2063.95C2038.26 2165.27 2081.33 2264.92 2126.03 2359.08ZM2146.12 2311.07L2145.7 2312.07C2105.04 2229.65 2064.92 2142.94 2024.01 2054.52C1901.65 1790.07 1772.22 1510.33 1600 1284.51C1220.28 786.58 632.351 550.867 -546.804 1318.96L-547.719 1318.58C632.26 549.793 1220.64 785.705 1600.67 1284.04C1772.94 1509.93 1902.39 1789.71 2024.77 2054.2C2065.57 2142.38 2105.57 2228.86 2146.13 2311.07L2146.12 2311.07ZM2166.26 2262.94L2165.85 2263.92C2130.72 2195.2 2095.47 2123.45 2059.47 2050.18C1921.65 1769.66 1772.8 1466.72 1577.33 1225.47C1167.34 719.49 552.064 484.895 -597.425 1297.77L-598.318 1297.4C551.946 483.823 1167.66 718.609 1577.97 1224.99C1773.5 1466.3 1922.36 1769.29 2060.2 2049.85C2096.1 2122.9 2131.24 2194.42 2166.26 2262.94ZM2186.45 2214.71L2186.05 2215.68C2158.12 2162.85 2129.83 2108.21 2100.95 2052.44C1945.85 1752.82 1773.81 1420.5 1549.73 1161.02C1109.06 650.732 466.999 422.279 -643.602 1278.45L-644.477 1278.08C466.845 421.198 1109.36 649.839 1550.36 1160.51C1774.49 1420.05 1946.56 1752.43 2101.69 2052.09C2130.45 2107.65 2158.63 2162.08 2186.46 2214.72L2186.45 2214.71ZM2206.68 2166.38L2206.28 2167.34C2187.69 2133.25 2168.82 2098.4 2149.63 2062.96C1975.48 1741.26 1775.34 1371.53 1515.94 1090.67C1047.88 583.875 386.715 366.505 -663.089 1242.46L-662.393 1240.8C387.174 365.641 1048.37 583.222 1516.55 1090.14C1776.02 1371.09 1976.19 1740.86 2150.36 2062.61C2169.43 2097.83 2188.19 2132.48 2206.68 2166.39L2206.68 2166.38ZM2226.95 2117.96L2226.55 2118.91C2220.1 2107.44 2213.61 2095.87 2207.07 2084.23C2012.6 1737.92 1777.96 1320.06 1474.66 1014.19C988.747 524.153 326.479 321.779 -629.267 1161.65L-628.54 1159.92C326.972 320.943 989.245 523.508 1475.25 1013.64C1778.62 1319.58 2013.3 1737.5 2207.79 2083.86C2214.22 2095.3 2220.61 2106.67 2226.95 2117.96ZM2247.25 2069.46L2246.86 2070.4C2036.25 1706.03 1767.29 1252 1424.61 931.558C924.823 464.196 268.15 281.162 -592.978 1074.95L-592.221 1073.14C268.691 280.353 925.327 463.566 1425.17 930.981C1767.77 1251.35 2036.67 1705.14 2247.25 2069.46ZM2267.59 2020.87L2267.19 2021.81C2042.59 1643.42 1740.36 1167.18 1364.62 843.037C856.368 404.59 213.524 244.584 -553.781 981.305L-552.983 979.398C214.125 243.786 856.893 403.976 1365.15 842.438C1740.82 1166.52 2042.98 1642.53 2267.58 2020.88L2267.59 2020.87ZM2287.95 1972.22L2287.56 1973.15C2024.86 1541.62 1642.24 981.383 1176.75 662.951C690.499 330.33 113.789 261.735 -511.132 879.409L-510.308 877.441C114.425 260.9 690.998 329.698 1177.21 662.296C1642.64 980.685 2025.21 1540.7 2287.95 1972.22ZM2308.34 1923.51L2307.95 1924.43C2037.6 1490.89 1627.21 926.014 1145.17 605.294C658.097 281.221 97.8807 206.552 -464.83 768.788L-464.002 766.809C98.5698 205.746 658.626 280.609 1145.63 604.633C1627.59 925.309 2037.94 1489.97 2308.34 1923.51ZM2328.76 1874.73L2328.37 1875.64C2051.15 1441.16 1614.28 873.351 1117.17 549.955C923.354 423.872 720.39 334.945 514.173 305.573C307.976 276.202 98.5209 306.383 -108.3 418.5C-211.524 474.454 -314.091 550.827 -415.273 650.388L-414.451 648.426C-313.675 549.49 -211.522 473.516 -108.72 417.79C98.2681 305.587 307.902 275.382 514.268 304.772C720.612 334.165 923.695 423.135 1117.61 549.287C1614.66 872.636 2051.46 1440.24 2328.76 1874.73ZM2349.2 1825.88L2348.82 1826.78C2050.62 1369.54 1554.71 763.109 1011.96 447.48C825.798 339.218 634.124 265.174 443.039 243.112C251.978 221.054 61.4963 250.969 -122.314 350.604C-204.259 395.027 -284.884 453.319 -363.641 527.032L-362.859 525.164C-284.483 452.002 -204.26 394.095 -122.728 349.897C61.238 250.17 251.885 220.234 443.12 242.312C634.322 264.39 826.103 338.473 1012.37 446.79C1555.06 762.388 2050.91 1368.61 2349.2 1825.88ZM2369.67 1776.97L2369.3 1777.87C2150.82 1449.82 1819.91 1044.21 1444.95 723.401C1164.77 483.693 860.022 291.344 559.237 214.108C258.512 136.885 -38.2565 174.738 -302.526 395.397C-305.639 397.997 -308.74 400.628 -311.84 403.272L-311.134 401.586C-308.452 399.302 -305.761 397.027 -303.068 394.78C-38.5694 173.93 258.449 136.038 559.427 213.328C860.346 290.6 1165.21 483.017 1445.48 722.802C1820.33 1043.51 2151.16 1448.95 2369.67 1776.97ZM2390.16 1728.02L2389.79 1728.91C2154.46 1382.56 1781.99 948.912 1367.51 618.906C1085.32 394.225 783.672 217.599 492.631 149.309C224.224 86.3357 -35.1682 115.512 -261.974 284.135L-261.352 282.649C-34.6014 114.609 224.611 85.5985 492.807 148.529C783.985 216.85 1085.74 393.534 1368.03 618.287C1782.38 948.199 2154.77 1381.69 2390.16 1728.02L2390.16 1728.02ZM2410.67 1679.02L2410.3 1679.91C2157.51 1314.93 1739.41 852.11 1284.2 514.682C1001.77 305.337 705.084 144.266 424.764 84.8152C194.595 36.0031 -24.5257 55.7284 -215.658 173.48L-215.113 172.177C-24.0296 54.8545 194.94 35.2552 424.924 84.0286C705.37 143.506 1002.17 304.632 1284.69 514.048C1739.79 851.39 2157.8 1314.05 2410.67 1679.02ZM2431.2 1629.98L2430.83 1630.86C2160.26 1247.36 1692.91 754.811 1196.71 412.045C915.705 217.921 625.463 71.8495 356.525 20.8505C165.386 -15.3976 -14.9908 -3.58766 -173.649 73.1145L-173.171 71.9724C-14.5531 -4.44682 165.69 -16.1562 356.669 20.057C625.728 71.0746 916.079 217.198 1197.18 411.381C1693.26 754.073 2160.53 1246.45 2431.2 1629.98L2431.2 1629.98ZM-87.5676 1511.18C1079.08 1050.81 1506.15 1223.26 1708.65 1604C1798.51 1772.96 1844.16 1982.9 1890.64 2196.71C1902.01 2249.02 1913.44 2301.57 1925.57 2353.8L1924.63 2353.41C1912.54 2301.35 1901.16 2248.98 1889.83 2196.85C1843.36 1983.1 1797.73 1773.21 1707.92 1604.35C1505.66 1224.07 1079 1051.85 -86.4925 1511.63L-87.5676 1511.18Z"
    fill="#33CCCC" fill-opacity="0.15" />
</svg>